<?xml version="1.0" standalone="no"?>
<!DOCTYPE svg PUBLIC "-//W3C//DTD SVG 20010904//EN"
 "http://www.w3.org/TR/2001/REC-SVG-20010904/DTD/svg10.dtd">
<svg version="1.0" xmlns="http://www.w3.org/2000/svg"
 width="700.000000pt" height="700.000000pt" viewBox="0 0 700.000000 700.000000"
 preserveAspectRatio="xMidYMid meet">
<metadata>
Created by potrace 1.14, written by Peter Selinger 2001-2017
</metadata>
<g transform="translate(0.000000,700.000000) scale(0.100000,-0.100000)"
fill="#000000" stroke="none">
<path d="M0 3500 l0 -3500 3500 0 3500 0 0 3500 0 3500 -3500 0 -3500 0 0
-3500z m3864 2835 c444 -60 835 -205 1200 -445 714 -469 1171 -1209 1278
-2070 16 -135 16 -505 0 -640 -107 -859 -564 -1601 -1278 -2070 -374 -246
-784 -395 -1244 -452 -135 -16 -505 -16 -640 0 -857 106 -1598 563 -2066 1272
-552 837 -626 1904 -193 2800 321 664 856 1161 1544 1433 267 105 483 154 850
191 81 8 443 -4 549 -19z"/>
<path d="M3310 6004 c-19 -2 -78 -9 -130 -15 -241 -27 -650 -148 -650 -192 0
-8 -20 -62 -45 -121 -61 -146 -64 -162 -70 -341 l-5 -158 -41 -53 c-62 -81
-166 -174 -193 -174 -29 0 -50 18 -107 94 -84 113 -157 154 -309 176 l-75 10
-54 -57 c-29 -32 -84 -98 -121 -147 l-67 -89 67 -66 c73 -72 110 -133 110
-181 0 -70 -70 -158 -182 -229 -69 -44 -104 -88 -114 -141 -9 -46 -17 -55 -91
-104 l-62 -42 28 -50 c16 -27 42 -59 59 -71 33 -25 52 -82 52 -161 0 -43 -6
-58 -45 -110 -24 -34 -57 -68 -73 -76 -27 -14 -33 -13 -70 6 -23 11 -53 33
-66 49 -32 38 -46 37 -46 -3 0 -18 -3 -69 -6 -113 l-6 -80 92 -29 c55 -17 105
-39 122 -55 18 -17 50 -75 88 -166 33 -77 72 -157 86 -179 15 -21 37 -70 49
-107 27 -79 86 -330 87 -370 1 -43 -104 -249 -187 -365 -14 -20 -10 -29 74
-155 114 -172 196 -272 327 -403 271 -271 614 -485 976 -607 94 -31 278 -78
278 -71 0 16 -82 93 -127 121 -26 17 -79 64 -116 106 -38 41 -101 100 -140
129 -40 29 -127 103 -194 165 -120 109 -122 113 -183 233 -35 68 -78 142 -98
166 -31 39 -34 48 -29 89 7 62 51 122 102 140 22 8 72 17 111 20 92 7 199 60
229 113 11 19 49 64 85 101 51 51 75 68 105 73 53 10 93 31 135 72 62 58 200
105 351 119 36 3 88 13 114 21 61 21 119 14 215 -26 64 -27 83 -31 130 -26 64
7 159 31 171 43 5 5 12 45 15 88 4 44 12 89 19 101 8 12 38 27 76 39 105 30
100 24 72 102 -52 145 -2 158 167 44 25 -17 56 -31 70 -31 28 0 126 43 152 67
28 25 22 86 -18 214 -37 116 -37 117 -75 128 -21 6 -91 16 -156 21 -65 5 -145
12 -179 16 l-61 7 -47 -66 c-46 -65 -61 -77 -96 -77 -27 0 -40 30 -40 91 0 74
-31 129 -127 224 -81 80 -113 131 -113 178 0 32 -58 84 -177 162 -92 60 -106
75 -117 127 -5 23 -15 30 -59 43 -28 8 -81 20 -117 25 -128 20 -145 40 -111
128 29 73 27 107 -8 142 -31 32 -38 34 -163 51 -110 14 -172 43 -176 82 -4 35
42 112 109 182 42 44 50 60 70 138 12 49 29 95 37 104 15 14 52 15 136 1 15
-2 21 5 27 32 6 27 29 55 101 123 51 48 104 90 116 93 35 10 69 -21 127 -111
51 -81 58 -112 40 -190 -8 -37 29 -98 63 -103 29 -4 48 -35 62 -97 5 -27 13
-61 16 -74 10 -44 24 -7 30 80 7 94 17 109 71 109 21 0 42 8 56 21 22 22 138
82 177 92 18 5 20 13 20 84 l0 79 -62 46 c-87 63 -161 108 -246 151 -82 42
-243 144 -254 161 -26 38 14 91 94 125 26 11 52 29 58 40 18 34 50 44 165 52
61 4 155 12 210 19 56 6 155 8 225 4 104 -5 142 -2 228 15 57 12 115 21 130
21 47 0 10 18 -128 64 -251 82 -450 115 -725 121 -104 2 -206 1 -225 -1z"/>
<path d="M5279 5167 c-28 -19 -35 -31 -42 -72 -4 -28 -5 -84 -2 -126 4 -58 0
-93 -16 -155 -16 -57 -22 -109 -22 -189 0 -105 2 -115 40 -215 23 -58 47 -132
54 -165 18 -80 18 -324 0 -393 -14 -57 -73 -142 -257 -374 -103 -129 -124
-167 -179 -316 -36 -96 -43 -107 -105 -165 -79 -75 -139 -106 -228 -118 -121
-17 -186 -37 -285 -85 -85 -41 -101 -53 -118 -87 -33 -64 -98 -118 -242 -200
-75 -44 -147 -87 -159 -97 l-22 -17 52 -66 c72 -90 96 -146 96 -227 0 -133
-102 -274 -356 -495 -46 -40 -46 -41 -53 -120 -9 -94 8 -308 30 -380 8 -27 15
-63 15 -79 l0 -29 148 6 c294 12 592 82 867 204 816 361 1370 1108 1487 2003
18 140 15 470 -6 615 -68 474 -262 917 -556 1268 -45 53 -87 97 -94 97 -7 0
-28 -10 -47 -23z"/>
</g>
</svg>
