<svg width="512" height="79" viewBox="0 0 512 79" fill="none" xmlns="http://www.w3.org/2000/svg">
<mask id="mask0_102_4" style="mask-type:alpha" maskUnits="userSpaceOnUse" x="0" y="0" width="512" height="79">
<rect width="512" height="79" fill="#C4C4C4"/>
</mask>
<g mask="url(#mask0_102_4)">
<path d="M183.5 0C204.736 0 222 17.2642 222 38.5C222 59.7358 204.736 77 183.5 77C162.264 77 145 59.7358 145 38.5C145 17.2642 162.264 0 183.5 0ZM217.137 38.5C217.137 29.6654 213.733 21.6411 208.14 15.6432C207.816 15.8054 207.492 15.9671 207.086 16.2917C206.843 16.5348 206.762 18.0748 206.924 19.7766V19.9383C206.924 19.9383 205.546 23.3425 206.843 26.0982C208.302 29.0161 207.978 33.7173 207.248 34.7711C206.6 35.6627 203.439 39.7962 202.953 40.2824C202.629 40.6064 201.494 43.6057 201.412 44.0111C201.332 44.4165 199.224 46.929 197.036 46.929C195.739 46.8481 194.28 47.5775 193.307 48.0637C192.821 48.3068 192.496 48.4691 192.253 48.5499C192.173 48.5499 192.01 48.793 191.929 49.0362C191.605 49.6038 191.119 50.414 189.984 51.0625C189.66 51.2247 189.335 51.3864 189.012 51.6301C187.877 52.2786 186.256 53.1703 186.174 53.4133C186.174 53.4941 186.418 53.7372 186.58 53.9809C187.309 54.7917 188.444 56.1695 188.12 57.9526C187.634 60.4651 184.148 63.4639 183.013 64.1938C182.284 64.6801 182.608 69.7866 183.013 70.759C183.176 71.0829 183.257 71.6506 183.176 72.2176H183.581C202.061 72.1368 217.137 57.0608 217.137 38.4997L217.137 38.5ZM176.773 71.4884C176.367 71.0022 175.881 70.516 175.8 70.3537C175.719 70.2729 175.395 70.1106 175.233 69.9483C174.665 69.6244 174.098 69.2998 173.855 68.8945C173.449 68.3268 172.315 67.1113 171.828 66.8682C171.18 66.5442 167.208 62.9778 166.965 62.4101C166.316 60.9515 165.506 59.33 165.02 58.9251C164.128 58.1958 164.939 56.8988 165.263 56.4127L165.344 56.3312C165.668 55.7636 167.938 55.5205 168.262 55.6019C168.667 55.6019 170.612 54.548 170.694 54.2241C170.694 53.5756 172.558 51.7924 173.044 51.7924C173.287 51.7924 174.422 51.5492 174.989 50.8199C175.719 49.9283 178.394 49.2798 179.123 49.2798C179.852 49.2798 180.906 49.1175 181.635 48.7935C182.284 48.4696 183.419 48.9558 184.553 49.442C184.796 49.5229 185.039 49.6043 185.121 49.6851C185.526 49.766 187.715 49.3612 188.201 49.1175C188.363 48.9552 188.444 48.145 188.444 47.6588C188.525 47.0912 188.525 46.7672 188.606 46.5241C188.769 46.2002 189.255 46.1187 190.309 45.7948C190.552 45.7139 190.876 45.6325 191.038 45.5517C190.957 45.3894 190.876 45.1463 190.795 44.9032C190.471 44.0924 190.227 43.5253 190.39 43.2008C190.471 43.0385 190.552 42.9577 190.714 42.9577C191.2 42.8768 191.929 43.363 192.659 43.8493C192.983 44.0924 193.47 44.4169 193.631 44.4978C194.037 44.4978 194.928 44.1738 195.982 43.5253C196.549 43.2013 195.901 41.1751 195.576 40.2835C195.414 39.7973 195.252 39.4727 195.252 39.2296C195.252 38.9865 194.118 38.662 192.497 38.662C192.091 38.662 191.443 38.5811 190.876 38.4997C190.39 38.4189 189.822 38.3375 189.498 38.3375C189.255 38.3375 188.85 38.986 188.606 39.3099C188.201 39.9584 187.877 40.3638 187.391 40.2824C186.742 40.1201 186.823 39.3099 186.823 38.7422V38.256C186.742 37.932 185.932 36.4728 185.283 36.1488C184.472 35.6625 183.419 34.1225 183.662 33.3931C183.662 33.0692 182.284 32.0962 181.798 31.7722C181.555 31.61 181.393 31.5291 181.312 31.4483C181.15 31.3674 180.988 31.286 180.826 31.1243C180.339 30.8812 179.691 30.5567 179.691 29.6656C179.691 29.1794 178.151 28.9363 177.259 28.774C177.016 28.774 176.854 28.6932 176.692 28.6932C176.124 28.6123 175.8 28.4501 175.638 28.207C175.475 27.883 175.638 27.4776 175.8 27.0722C175.881 26.9914 175.881 26.8291 175.962 26.6669C176.286 25.9375 176.124 25.3699 175.395 24.8837C175.071 24.6406 174.503 24.5597 173.854 24.5597C173.206 24.4789 172.557 24.3975 171.909 24.1544C171.423 23.9921 171.18 23.749 171.098 23.425C171.017 23.0196 171.261 22.6957 171.504 22.3712C171.584 22.2089 171.666 22.1281 171.747 21.9658C172.071 21.3173 172.719 20.8311 173.044 20.5071C173.287 20.3449 173.449 19.3724 173.611 18.8047C173.692 18.3994 173.774 18.0754 173.854 17.9131C173.935 17.67 174.098 17.5892 174.341 17.5077C174.827 17.3455 175.638 17.5886 176.124 17.8317C176.124 17.7509 176.205 17.5077 176.205 17.4263C176.286 17.1024 176.286 16.7778 176.529 16.5347C176.61 16.4539 176.934 16.1293 177.258 15.8862C177.744 15.4809 178.312 14.9138 178.717 14.5084C178.96 14.2653 179.203 14.2653 179.365 14.2653C179.933 14.3461 180.419 14.9946 180.824 15.724C180.905 15.8048 180.905 15.8862 180.986 15.9671C181.715 17.0209 181.797 17.8311 181.31 18.2365C181.31 18.2365 181.229 18.4797 181.391 18.8042C181.634 19.3718 181.959 19.7766 182.202 19.7766C182.85 19.6958 183.012 20.5874 183.174 21.479C183.255 21.803 183.336 22.2898 183.417 22.4515C183.58 22.2892 183.741 21.803 183.741 20.3443V20.182C183.741 20.0197 183.822 19.858 183.903 19.6958C184.066 19.5335 184.39 19.5335 184.633 19.5335C184.957 19.5335 185.119 19.5335 185.2 19.4527C185.524 18.885 187.308 18.1557 188.038 17.9125V15.8053C187.794 15.4813 185.039 13.6167 184.39 13.3736C183.499 13.0496 181.31 11.5904 180.824 11.2663C180.419 11.0232 180.338 10.6987 180.419 10.4556C180.499 9.72625 181.796 9.24003 182.364 9.07777C182.769 8.10531 183.418 8.10531 184.228 8.10531C184.633 8.10531 185.039 8.10531 185.606 8.02446C187.713 7.7005 189.415 7.61908 190.874 7.78135C191.846 7.94361 193.063 7.7005 194.035 7.45738C194.521 7.37653 194.927 7.29512 195.332 7.21427H195.98C192.09 5.59336 187.794 4.70178 183.336 4.70178C178.798 4.70178 174.502 5.59339 170.53 7.29575C170.449 7.70113 170.287 8.18736 170.044 8.67358C169.638 9.64603 168.828 11.3483 168.909 12.564C168.909 13.7795 168.747 15.1579 168.909 15.5628C169.071 15.9681 166.397 18.8861 165.829 18.967C165.261 19.0479 164.857 18.643 164.532 18.0754C164.127 17.5077 163.64 16.8598 162.587 16.049C161.938 15.5628 160.236 15.3197 159.02 15.2383C157.805 16.4538 156.751 17.7508 155.778 19.21C156.021 19.4531 156.346 19.6154 156.508 19.7777C156.994 20.2639 158.372 21.6417 158.21 22.6148C158.048 23.6686 156.913 24.965 155.616 25.6136C154.238 26.3429 154.076 27.7208 154.076 27.9638C154.076 28.2069 152.131 29.4225 152.131 29.4225C152.131 29.4225 152.941 31.0434 153.346 31.0434C153.752 31.0434 154.075 32.6643 154.075 33.3129C154.075 33.9614 153.265 35.096 152.455 35.7446C151.644 36.3931 150.266 34.6099 150.266 34.6099L150.023 34.529C149.942 35.5829 149.861 36.6363 149.78 37.6901C150.914 37.8524 152.374 38.4194 152.779 38.7439C153.346 39.2302 154.562 43.1205 155.129 43.5259C155.696 43.9313 156.831 49.2809 156.912 49.848C156.993 50.2534 155.291 53.5767 154.156 54.9545C158.86 63.3017 167.046 69.4614 176.773 71.4878L176.773 71.4884Z" fill="white"/>
<path d="M40.8 78C53.7 78 65 73.9 72.3 66.8V35.8H43.3V48.3H57.9V58.6C53.6 62 48.7 63.4 41.5 63.4C26.9 63.4 17.2 54 17.2 39.8C17.2 26.6 27 16.8 40.3 16.8C48.1 16.8 53.9 19 58.5 23.5L70 12.6C62.5 5.3 52.5 1.6 40.3 1.6C18.4 1.6 1.4 18.2 1.4 39.8C1.4 62.1 17.8 78 40.8 78ZM134.152 2.6H85.5523V77H134.152V62.2H100.952V46.1H130.252V32.2H100.952V17.4H134.152V2.6Z" fill="white"/>
<path d="M299 2.6H284V46L233.4 0.899996V77H248.4V33.6L299 78.7V2.6ZM362.371 2.6H313.771V77H362.371V62.2H329.171V46.1H358.471V32.2H329.171V17.4H362.371V2.6ZM432.325 30.8C432.325 13.7 420.025 2.6 401.325 2.6H374.025V77H389.425V57.6H401.325C402.725 57.6 404.125 57.5 405.525 57.4L414.225 77H431.025L419.825 53.4C427.725 49 432.325 41.2 432.325 30.8ZM389.425 17.4H402.325C410.725 17.4 416.525 22.8 416.525 30.8C416.525 38.8 410.725 44.2 402.325 44.2H389.425V17.4ZM443.459 2.6V77H468.759C493.459 77 509.959 62.1 509.959 39.8C509.959 17.5 493.459 2.6 468.759 2.6H443.459ZM458.859 62.1V17.5H470.959C484.659 17.5 494.159 26.6 494.159 39.8C494.159 53 484.659 62.1 470.959 62.1H458.859Z" fill="white"/>
</g>
</svg>
