<svg width="311" height="311" viewBox="0 0 311 311" fill="none" xmlns="http://www.w3.org/2000/svg">
	<path d="M60.1343 269.496C60.1343 273.923 63.724 277.512 68.1508 277.512C72.5775 277.512 76.1672 273.925 76.1672 269.496V159.944H129.607V183.991C129.607 188.188 133.426 192.007 137.624 192.007H265.88C268.88 192.009 271.809 190.17 273.107 187.463C274.408 184.759 274.017 181.324 272.142 178.981L233.398 130.551L272.142 82.1213C274.017 79.7784 274.408 76.3436 273.107 73.6391C271.806 70.9347 268.88 69.0951 265.88 69.097H188.392V50.3935C188.392 46.1961 184.573 42.377 180.375 42.377H76.1672V39.7042C76.1672 35.2776 72.5794 31.6877 68.1508 31.6877C63.7242 31.6877 60.1343 35.2756 60.1343 39.7042V269.496ZM76.1672 58.408H172.359V143.912H76.1672V58.408ZM188.391 85.128H249.179L216.864 125.541C214.608 128.358 214.608 132.745 216.864 135.561L249.179 175.975H145.639V159.942H180.376C184.573 159.942 188.392 156.123 188.392 151.926L188.391 85.128Z" fill="black"/>
</svg>
