<svg width="91" height="91" viewBox="0 0 91 91" fill="none" xmlns="http://www.w3.org/2000/svg">
<path d="M45.5 0C70.5968 0 91 20.4032 91 45.5C91 70.5968 70.5968 91 45.5 91C20.4032 91 -1.66893e-06 70.5968 -1.66893e-06 45.5C-1.66893e-06 20.4032 20.4032 0 45.5 0ZM85.2526 45.5C85.2526 35.0591 81.2295 25.5758 74.62 18.4874C74.2371 18.6791 73.8536 18.8702 73.3745 19.2538C73.0872 19.5411 72.9917 21.3611 73.1828 23.3724V23.5635C73.1828 23.5635 71.5544 27.5866 73.0872 30.8433C74.8111 34.2917 74.4282 39.8477 73.5663 41.0931C72.7999 42.1468 69.0642 47.0319 68.4895 47.6065C68.1066 47.9893 66.7656 51.534 66.6693 52.0131C66.5737 52.4922 64.0828 55.4615 61.497 55.4615C59.9642 55.366 58.2403 56.2279 57.0903 56.8026C56.5157 57.0899 56.1322 57.2816 55.8449 57.3772C55.7493 57.3772 55.5576 57.6645 55.462 57.9518C55.0791 58.6227 54.5038 59.5802 53.1629 60.3466C52.78 60.5383 52.3965 60.7294 52.0136 61.0174C50.6726 61.7838 48.7569 62.8376 48.6606 63.1248C48.6606 63.2203 48.948 63.5077 49.1397 63.7956C50.0017 64.7538 51.3427 66.3821 50.9599 68.4895C50.3853 71.4588 46.266 75.0028 44.925 75.8655C44.063 76.4401 44.4459 82.4751 44.925 83.6242C45.1168 84.0071 45.2123 84.678 45.1168 85.3481H45.5958C67.4358 85.2526 85.2527 67.4355 85.2527 45.4997L85.2526 45.5ZM37.5495 84.4863C37.0704 83.9117 36.4958 83.337 36.4002 83.1453C36.3047 83.0498 35.9211 82.858 35.7294 82.6662C35.0585 82.2833 34.3883 81.8998 34.101 81.4207C33.6219 80.7499 32.2808 79.3134 31.7063 79.026C30.9399 78.6431 26.2459 74.4283 25.9586 73.7574C25.1922 72.0335 24.2347 70.1172 23.6595 69.6388C22.6057 68.7769 23.5639 67.2441 23.9468 66.6695L24.043 66.5733C24.4259 65.9024 27.1086 65.6151 27.4914 65.7113C27.9705 65.7113 30.269 64.4659 30.3653 64.083C30.3653 63.3166 32.5682 61.2092 33.1428 61.2092C33.4301 61.2092 34.7712 60.9218 35.4419 60.0599C36.3039 59.0062 39.4651 58.2397 40.327 58.2397C41.189 58.2397 42.4344 58.0479 43.2963 57.6651C44.0627 57.2822 45.4037 57.8568 46.7448 58.4315C47.0321 58.527 47.3194 58.6232 47.4156 58.7188C47.8947 58.8143 50.4812 58.3359 51.0558 58.0479C51.2475 57.8562 51.3431 56.8987 51.3431 56.3241C51.4386 55.6532 51.4386 55.2704 51.5349 54.9831C51.7266 54.6002 52.3013 54.504 53.5468 54.1211C53.8341 54.0256 54.2176 53.9293 54.4087 53.8338C54.3132 53.642 54.217 53.3547 54.1214 53.0674C53.7385 52.1092 53.4506 51.439 53.6423 51.0555C53.7379 50.8637 53.8341 50.7681 54.0252 50.7681C54.5998 50.6726 55.4618 51.2472 56.3243 51.8219C56.7072 52.1092 57.2825 52.4927 57.4736 52.5883C57.9527 52.5883 59.0064 52.2054 60.2511 51.439C60.922 51.0561 60.1556 48.6614 59.7721 47.6078C59.5803 47.0331 59.3892 46.6496 59.3892 46.3623C59.3892 46.075 58.0482 45.6914 56.1325 45.6914C55.6534 45.6914 54.887 45.5959 54.2169 45.4997C53.6423 45.4041 52.9714 45.3079 52.5886 45.3079C52.3012 45.3079 51.8222 46.0743 51.5348 46.4572C51.0558 47.2236 50.6729 47.7026 50.0983 47.6064C49.3319 47.4147 49.4274 46.4572 49.4274 45.7863V45.2116C49.3319 44.8288 48.3737 43.1043 47.6072 42.7213C46.6491 42.1466 45.4043 40.3265 45.6916 39.4646C45.6916 39.0817 44.0633 37.9318 43.4886 37.549C43.2013 37.3572 43.0096 37.2617 42.914 37.1661C42.7222 37.0706 42.5311 36.9744 42.3394 36.7833C41.7647 36.4959 40.9984 36.1124 40.9984 35.0594C40.9984 34.4848 39.1782 34.1974 38.1245 34.0057C37.8372 34.0057 37.6454 33.9101 37.4537 33.9101C36.7828 33.8146 36.3999 33.6228 36.2082 33.3355C36.0164 32.9526 36.2082 32.4735 36.3999 31.9945C36.4955 31.8989 36.4955 31.7072 36.5917 31.5154C36.9746 30.6534 36.7835 29.9826 35.9209 29.408C35.538 29.1207 34.8671 29.0252 34.1007 29.0252C33.3343 28.9296 32.5679 28.8334 31.8016 28.5461C31.2269 28.3543 30.9396 28.067 30.8434 27.6841C30.7479 27.205 31.0352 26.8222 31.3225 26.4386C31.418 26.2469 31.5143 26.1513 31.6098 25.9596C31.9927 25.1932 32.7591 24.6185 33.1426 24.2357C33.4299 24.0439 33.6217 22.8947 33.8134 22.2238C33.909 21.7447 34.0052 21.3618 34.1008 21.1701C34.1963 20.8827 34.3881 20.7872 34.6754 20.691C35.25 20.4992 36.2082 20.7865 36.7828 21.0738C36.7828 20.9783 36.8783 20.691 36.8783 20.5948C36.9739 20.2119 36.9739 19.8284 37.2612 19.541C37.3567 19.4455 37.7403 19.062 38.1231 18.7746C38.6978 18.2956 39.3686 17.6254 39.847 17.1463C40.1343 16.859 40.4216 16.859 40.6134 16.859C41.2843 16.9545 41.8589 17.7209 42.3373 18.5829C42.4328 18.6784 42.4328 18.7746 42.529 18.8702C43.391 20.1156 43.4872 21.0732 42.9119 21.5523C42.9119 21.5523 42.8164 21.8396 43.0075 22.2231C43.2948 22.894 43.6783 23.3724 43.9656 23.3724C44.732 23.2768 44.9238 24.3306 45.1149 25.3843C45.2104 25.7672 45.3067 26.3425 45.4022 26.5336C45.594 26.3418 45.7851 25.7672 45.7851 24.0432V23.8515C45.7851 23.6597 45.8806 23.4686 45.9768 23.2768C46.1686 23.0851 46.5515 23.0851 46.8388 23.0851C47.2217 23.0851 47.4134 23.0851 47.5096 22.9895C47.8925 22.3187 50 21.4567 50.8626 21.1693V18.679C50.5753 18.2961 47.3186 16.0925 46.5523 15.8051C45.4985 15.4223 42.9121 13.6978 42.3374 13.3148C41.8583 13.0275 41.7627 12.6439 41.8583 12.3566C41.9538 11.4947 43.4866 10.92 44.1574 10.7283C44.6365 9.579 45.4029 9.579 46.3604 9.579C46.8395 9.579 47.3185 9.579 47.9887 9.48345C50.4791 9.10059 52.4908 9.00437 54.2147 9.19614C55.364 9.3879 56.8012 9.10059 57.9505 8.81327C58.5251 8.71772 59.0042 8.6215 59.4833 8.52595H60.2497C55.6519 6.61033 50.5751 5.55665 45.3067 5.55665C39.9426 5.55665 34.8658 6.61037 30.1719 8.62225C30.0764 9.10134 29.8846 9.67597 29.5973 10.2506C29.1182 11.3999 28.1607 13.4116 28.2563 14.8483C28.2563 16.2849 28.0645 17.9139 28.2563 18.3924C28.448 18.8714 25.287 22.3199 24.6161 22.4155C23.9452 22.5111 23.4668 22.0326 23.0833 21.3618C22.6042 20.6909 22.0296 19.9252 20.7842 18.9671C20.0178 18.3924 18.0067 18.1051 16.5693 18.0089C15.1327 19.4455 13.8872 20.9782 12.7381 22.7027C13.0254 22.9901 13.4089 23.1818 13.6 23.3736C14.1746 23.9482 15.803 25.5766 15.6119 26.7266C15.4202 27.972 14.0791 29.5041 12.5463 30.2706C10.918 31.1326 10.7262 32.761 10.7262 33.0482C10.7262 33.3355 8.42704 34.772 8.42704 34.772C8.42704 34.772 9.38521 36.6876 9.86361 36.6876C10.3427 36.6876 10.7256 38.6033 10.7256 39.3698C10.7256 40.1362 9.76739 41.4771 8.80994 42.2436C7.85177 43.01 6.22346 40.9026 6.22346 40.9026L5.93613 40.807C5.84058 42.0525 5.74437 43.2974 5.64882 44.5428C6.98984 44.7346 8.71442 45.4048 9.19286 45.7883C9.86371 46.3629 11.3002 50.9606 11.9704 51.4397C12.6413 51.9188 13.9823 58.2411 14.0778 58.9113C14.1733 59.3904 12.1622 63.3179 10.8211 64.9462C16.3803 74.8111 26.0549 82.0908 37.5498 84.4855L37.5495 84.4863Z" fill="white"/>
</svg>
