<svg width="249" height="248" viewBox="0 0 249 248" fill="none" xmlns="http://www.w3.org/2000/svg">
<path d="M125 0C148.402 0 170.876 6.50469 190.339 18.5929C196.157 22.2067 197.944 29.853 194.33 35.669C190.718 41.4869 183.072 43.2738 177.254 39.6617C161.69 29.995 143.742 24.7998 124.997 24.7998C70.2109 24.7998 25.7968 69.214 25.7968 124C25.7968 178.786 70.2109 223.2 124.997 223.2C179.783 223.2 224.197 178.786 224.197 124C224.197 116.286 223.318 108.697 221.597 101.33C220.04 94.6605 224.181 87.992 230.85 86.4331C237.519 84.8745 244.189 89.0176 245.747 95.6866C247.9 104.9 248.997 114.384 248.997 124C248.997 192.484 193.48 248 124.997 248C56.5136 248 0.99707 192.484 0.99707 124C0.99707 55.5168 56.5136 0.000265714 124.997 0.000265714L125 0ZM234.209 27.8083C238.995 31.9376 239.859 38.9263 236.445 44.0559L235.503 45.2979L120.931 178.177L54.9851 122.275C49.7607 117.847 49.1155 110.022 53.5441 104.798C57.6319 99.9749 64.6138 99.0546 69.7726 102.425L71.0216 103.357L118.195 143.344L216.722 29.1045C221.195 23.9182 229.025 23.3385 234.211 27.8105L234.209 27.8083Z" fill="#6ccb33"/>
</svg>
