<svg width="311" height="311" viewBox="0 0 311 311" fill="none" xmlns="http://www.w3.org/2000/svg">
	<path d="M179.516 286.1C179.159 286.1 178.797 286.072 178.445 286.021L150.389 281.733L103.163 272.524C101.786 272.252 100.515 271.582 99.5183 270.588L80.0978 251.233C77.4406 248.576 77.3247 244.316 79.8474 241.53L87.9719 232.548L92.8365 174.833L78.1361 163.729C77.0649 162.921 76.2488 161.821 75.7757 160.578L68.3653 140.738L36.1178 131.003C33.7111 130.273 31.8701 128.327 31.2904 125.883L26.4258 105.447C25.6885 102.347 27.1307 99.1353 29.9408 97.6243L49.9181 86.8724C51.8008 85.8605 54.0313 85.745 56.0022 86.5674L73.8746 93.988L80.6358 93.5259L78.0574 65.7797C77.8719 63.7513 78.5675 61.7459 79.9772 60.2673C81.387 58.798 83.4227 57.9571 85.4029 58.0863L97.8168 58.6223C99.5233 58.7009 101.146 59.3847 102.385 60.5583L110.94 68.6582L121.23 68.002L127.361 59.4217C127.908 58.6547 128.604 58.0125 129.411 57.5134L145.238 47.7779L149.425 29.6932C149.963 27.3552 151.674 25.4422 153.946 24.6384L170.673 18.7103C172.969 17.8878 175.533 18.3175 177.439 19.8284L207.461 43.5731L222.597 46.9692C224.8 47.4682 226.627 48.9745 227.531 51.0353L231.505 60.1423L249.071 64.1714C250.945 64.5965 252.568 65.7655 253.56 67.415L258.387 75.4316L278.963 79.1557C280.864 79.5022 282.538 80.602 283.605 82.2006C284.667 83.804 285.028 85.7722 284.602 87.6436L274.882 130.115C274.664 131.076 274.242 131.977 273.653 132.763L250.643 163.517L260.734 172.121C262.236 173.405 263.136 175.253 263.201 177.226L264.657 218.515L271.432 221.56C273.092 222.313 274.404 223.672 275.081 225.363L278.327 233.43C279.538 236.443 278.527 239.89 275.888 241.775L247.295 262.203C245.625 263.395 243.525 263.792 241.53 263.33L195.58 252.393L186.134 261.112L186.597 278.865C186.648 280.953 185.781 282.958 184.205 284.335C182.892 285.486 181.232 286.1 179.516 286.1L179.516 286.1ZM107.995 259.107L152.824 267.849L172.222 270.801L171.897 258.289C171.846 256.256 172.667 254.306 174.165 252.929L188.731 239.488C190.461 237.885 192.886 237.247 195.182 237.806L241.67 248.868L263.136 233.532L263.016 233.227L254.831 229.549C252.378 228.445 250.769 226.052 250.676 223.367L249.173 180.811L236.421 169.935C233.597 167.523 233.124 163.346 235.35 160.37L261.426 125.527L269.165 91.6912L252.712 88.711C250.705 88.3552 248.956 87.1401 247.908 85.3981L242.984 77.2105L224.875 73.0658C222.686 72.5622 220.868 71.0606 219.969 69.0044L216.004 59.9204L202.787 56.954C201.749 56.7138 200.779 56.2517 199.949 55.6049L171.727 33.2974L162.342 36.6241L158.358 53.8122C157.932 55.6466 156.791 57.2314 155.182 58.2249L138.056 68.7644L130.803 78.9111C129.565 80.6345 127.617 81.7203 125.498 81.8544L108.771 82.9217C106.777 83.0742 104.876 82.3534 103.448 80.9996L94.5718 72.5994L92.9024 72.5254L95.4019 99.4165C95.5828 101.306 94.9846 103.187 93.7465 104.628C92.5083 106.079 90.7462 106.962 88.8449 107.091L73.1936 108.163C72.0853 108.228 71.0001 108.057 69.9846 107.632L53.6887 100.863L41.4552 107.451L44.1263 118.684L75.8361 128.258C77.9506 128.895 79.6386 130.485 80.4085 132.546L88.3243 153.735L104.485 165.938C106.419 167.393 107.462 169.74 107.263 172.143L101.869 236.091C101.735 237.629 101.114 239.08 100.075 240.217L94.8486 245.993L107.995 259.107Z" fill="black"/>
</svg>
