<svg width="311" height="311" viewBox="0 0 311 311" fill="none" xmlns="http://www.w3.org/2000/svg">
	<path d="M160.635 290.145C157.66 292.617 153.337 292.617 150.363 290.145C84.5107 235.429 51.1949 180.062 51.1949 123.996C51.1949 66.5605 97.8939 19.9951 155.502 19.9951C213.11 19.9951 259.809 66.5571 259.809 123.996C259.809 180.062 226.491 235.429 160.641 290.145H160.635ZM243.756 123.996C243.756 75.3957 204.242 35.9945 155.495 35.9945C106.748 35.9945 67.2346 75.3942 67.2346 123.996C67.2346 173.194 96.4135 223.048 155.495 273.523C214.576 223.048 243.756 173.194 243.756 123.996V123.996ZM192.026 100.841C197.997 97.8644 204.791 103.038 203.482 109.565L195.457 149.565C194.707 153.304 191.415 155.997 187.591 155.997H123.4C119.575 155.997 116.283 153.304 115.533 149.565L107.509 109.565C106.199 103.038 112.993 97.8643 118.964 100.841L136.247 109.457L148.528 88.0267C151.609 82.6537 159.38 82.6537 162.461 88.0267L174.743 109.457L192.026 100.841ZM126.461 122.467L129.978 139.996H181.011L184.528 122.467L175.131 127.151C171.322 129.05 166.688 127.652 164.576 123.966L155.495 108.121L146.414 123.966C144.302 127.652 139.668 129.051 135.859 127.151L126.461 122.467Z" fill="black"/>
</svg>
