<?xml version="1.0" encoding="UTF-8"?>
<svg width="700pt" height="700pt" version="1.1" viewBox="0 0 700 700" xmlns="http://www.w3.org/2000/svg" xmlns:xlink="http://www.w3.org/1999/xlink" fill="white">
	<path
		d="m205.92 249.15c-1.1758-2.9688-3.5625-5.293-6.5586-6.3945l-17.672-6.6758c-1.2344-0.44531-2.5391-0.87891-3.8555-0.87891h-23.566c-5.3555 0-9.957 3.9922-10.988 9.2461l-5.8906 30.133c-1.1406 5.8008 2.4297 11.535 8.1484 13.035 6.0078 1.5742 12.797 4.1172 15.91 5.8477 1.1641 3.5781 4.0898 7.4883 11 9.4062-0.52734 6.8672-3.457 14.191-4.6406 16.613-2.1328 4.2969-1.293 9.4766 2.0898 12.879 1.5273 1.5508 9.6797 9.2422 19.723 9.2422 10.125 0 15.348-9.3984 20.402-18.48 1.6641-2.9961 3.9492-7.1016 5.1914-8.3477 3.9102-3.9023 7.3242-7.5078 9.5078-11.984 3.7344-7.6562 2.3867-15.809-3.5625-21.75-2.7734-3.0781-10.121-18.977-15.238-31.891zm-6.5586 49.789c-1.668 1.668-3.1797 3.7031-4.6016 5.9023 0.10547-1.3203 0.16406-2.6602 0.16406-4.0039 0-6.7148-2.4023-15.148-13.367-18.703-2.2109-3.9023-7.5156-8.8086-20.242-13.277l2.1758-11.254h12.359l11.137 4.2773c4.043 9.8516 10.832 25.375 16.418 32.676-1.2461 1.4883-3.0781 3.4219-4.043 4.3828z"/>
	<path
		d="m545.7 259.51c0.125-3.0117 0.29688-6.0117 0.29688-9.0547 0-127.46-103.7-231.14-231.14-231.14-127.45 0-231.15 103.68-231.15 231.14s103.7 231.15 231.15 231.15c6.082 0 12.102-0.25781 18.059-0.73437 28.309 40.996 75.602 67.934 129.09 67.934 86.457 0 156.8-70.34 156.8-156.8 0-55.699-29.215-104.67-73.098-132.49zm-230.85-216.36c16.379 0 32.305 1.9727 47.602 5.5781-0.57031 2.1953-1.4961 5-2.2188 6.8359-0.14062 0.11328-0.29297 0.22266-0.44922 0.33984-6.4453 4.9688-17.238 13.273-15.578 24.871 1.6172 11.336 13.777 18.391 31.535 25.492 7.4258 2.9727 17.02 2.9062 24.734 2.8555 0.94531-0.003906 2.0625-0.011719 3.0742-0.011719 2.8438 2.9336 7.0117 7.2578 9.1523 9.4766 1.6289 3.5625 3.1641 7.2617 4.4023 10.539l-6.3008-7.5547c-3.8203-4.5742-10.426-5.6445-15.484-2.4766-5.4102 3.3828-12.02 7.4219-14 8.5195-4.0781 1.4844-21 7.8945-25.016 13.242-3.1406 4.1953-10.602 27.277 1.0742 37.891 2.3672 2.1523 5.4102 3.8789 8.5352 5.2539-1.6016 3.2031-3.0742 6.1328-4.2617 8.4492-4.6406-0.33984-11.105-1.2148-14.598-2.0898-2.8945-3.2383-8.0039-7.2695-17.445-14.449-2.418-1.8359-5.6562-4.3008-6.832-5.3047-2.4883-2.9844-6.082-5.5391-35.125-10.199-1.5664-0.24609-3.1914-0.17969-4.7422 0.19141l-21.926 5.4023c-1.6172 0.40234-3.1289 1.1328-4.4414 2.1523-6.3516 4.9102-15.418 9.9922-21.488 11.793 0.25391-2.0781 0.19531-4.4023-0.62109-6.8555-1.4492-4.3398-3.4336-12.145-34.922-19.719-0.90234-0.21094-1.8359-2.1719-2.7773-2.1719h-27.625l-18.238-29.211c37.945-49.031 97.316-78.84 163.98-78.84zm-71.254 343.97v11.223c0 0.72656-0.69922 2.7617-1.0547 4.1055-1.5 5.7383-3.4102 12.84 0.88672 18.988-0.41016 0.39844-0.875-0.92969-1.3398-0.46484-2.4531 2.4531-4.1367-0.96875-5.2969 4.6328h-5.3477c-4.4727 0-8.3203 4.2461-10.367 7.8906-67.301-34.289-113.54-102.47-113.54-183.04 0-38.191 10.426-73.98 28.516-104.74l15.941 27.379c2.1484 3.6406 6.0547 6.1094 10.285 6.1094h33.012c5.2461 0 10.652 2.6836 14.543 4.0469-0.59766 3.6445-0.54297 8.1523 2.3086 12.582 3.0234 4.7031 8.1406 7.5039 15.223 8.4492 15.508 2.1172 34.59-10.504 41.676-15.668l17.199-4.25c8.125 1.3594 17.266 3.1641 20.871 4.2461 1.5898 1.3672 3.9922 3.1992 8.0625 6.293 3.7031 2.8125 11.094 8.4336 13.551 10.801 3.543 6.2422 11.562 7.7227 17.102 8.7422 8.0312 1.4766 13.961 2.0625 18.406 2.0625 10.258 0 12.57-3.0898 14.273-5.3594 0.70703-0.94141 2.0156-2.6875 15.035-29.227 1.6445-3.3555 1.6133-7.2812-0.0625-10.617-1.6797-3.3359-4.8398-5.6953-8.5117-6.3633-3.5039-0.64453-7.6992-1.9219-10.051-2.9844 0.011719-1.6758 0.34766-4.0195 0.76172-5.9297 4.3555-2.1016 12.219-5.4141 14.074-6.0977 1.0547-0.34766 2.0625-0.6875 9.3477-5.125l9.0312 10.84c3.1797 3.8203 8.3984 5.2695 13.074 3.6289 3.8711-1.3438 13.406-5.0117 18.375-9.9844 4.8203-4.8164 8.3203-12.066-6.1484-42.617-0.55469-1.1641-1.293-2.2344-2.1836-3.1641 0 0-11.762-12.215-13.586-14.035-4.2617-4.2617-9.4531-4.2188-17.359-4.168-4.4023 0.035157-12.633 0.085938-15.715-1.1484-6.9727-2.793-11.258-4.9375-13.867-6.4688 1.3789-1.1602 2.8047-2.2578 3.6016-2.8672 2.2695-1.7539 3.7734-2.9102 5.0898-4.6641 1.4062-1.875 4.168-8.1602 5.875-14.645 78.758 28.547 135.41 103.53 136.79 191.7-18.508-7.7305-38.801-12.008-60.082-12.008-58.598 0-109.75 32.328-136.67 80.07-1.625-0.37891-3.2695-0.77344-4.8945-1.1719l-14.547-19.461c-2.5469-3.4102-6.7695-5.2031-10.941-4.7031-2.5859 0.30859-15.91 2.2461-24.113 10.449-1.1328 1.1328-2.0508 1.332-2.8398 2.1602-0.21094 0.22656-0.39844-0.14453-0.57812-0.14453h-18.082c-6.5859 0-11.336 6.8672-11.336 13.453v25.711c0 17.516 21.539 16.836 28.965 16.836h0.12891c2.625 0 13.203 2.6719 22.707 4.9297 2.2852 2.5039 4.4336 5.8242 5.4922 7.5547-0.34766 0.80469-0.85547 1.7422-1.2383 2.5195-1.7266 3.5-3.8516 7.7773-4.0156 13.098-0.011718 0.003906-0.015624-0.015625-0.023437-0.011719-2.4258-0.47656-7.7188-2.4414-11.949-4.4453-0.46875-0.22266-0.96484-0.42578-1.457-0.58203l-17.656-5.6953c-3.6328-1.1641-7.4883-0.54297-10.562 1.7031-3.082 2.2578-4.7891 5.8359-4.7891 9.6484zm66.996-35.848c-2.0391-2.4688-4.1953-4.8008-6.25-6.8203-1.5273-1.5-3.4336-2.5664-5.5156-3.0781-7.3789-1.8125-25.672-6.0352-32.109-6.0352-2.3594 0-6.3164-0.050782-6.3164-0.15234v-10.383h7.4766c9.0898 0 12.789-1.6953 17.406-6.5508 0.67188-0.71094 1.4492-0.78906 2.4062-1.7422 0.69922-0.70703 2.1289-1.0547 3.8008-1.6797l12.387 16.75c1.6289 2.1836 3.9531 3.832 6.5859 4.5078 1.2617 0.32422 2.8516 0.72266 4.6133 1.1641-1.707 4.5703-3.2031 9.25-4.4844 14.02zm4.2578 106.48c-21.867 0-42.941-3.4258-62.746-9.7344 1.7188-1.6445 2.9453-3.3867 3.8477-4.6992 0.91406-1.3281 1.707-2.4766 2.9727-3.7344 2.3125-2.3203 3.2422-3.0352 4.418-3.9492 1.8633-1.4453 3.543-2.8008 6.6758-5.9297 7.293-7.3008 6.1211-13.848 4.7695-17.102-1.7656-4.2617-4.9297-6.4922-8.3984-7.6602 0.11719-0.53906 0.23438-1.0742 0.33594-1.6172l1.8438 0.59375c4.7266 2.1992 14.875 6.5 22.043 6.5 5.6172 0 10.949-2.4297 15.121-6.1367 1.4727 18.906 6.3008 36.875 13.91 53.324-1.6094 0.039063-3.1875 0.14453-4.793 0.14453zm147.14 57.445c-67.934 0-123.2-55.266-123.2-123.2s55.266-123.2 123.2-123.2 123.2 55.266 123.2 123.2-55.266 123.2-123.2 123.2z"/>
	<path
		d="m558.18 365.72-12.465-2.0312c-1.1641-3.375-2.7383-6.6602-4.2852-9.8398l6.9609-9.9297c0.15625-0.22266 0.25781-0.44922 0.41016-0.67578 4.6094-7.1953 3.5938-16.43-2.418-22.449l-13.262-13.246c-3.3984-3.3984-7.9258-5.2734-12.73-5.2734-2.2305 0-5.6445 0.44922-9.2344 2.5703-0.42578 0.25391-0.83984 0.52734-1.2422 0.81641l-9.8281 7.0625c-3.3203-1.6133-6.7422-3.0195-10.246-4.207l-1.9648-12.512c-1.3633-8.8086-8.8398-16.004-17.754-16.004h-18.691c-8.9609 0-16.43 7.2305-17.719 15.77l-2.0781 12.621c-3.3594 1.1758-6.6484 2.7617-9.8281 4.3359l-9.7344-6.8359c-6.9219-5.0117-17.164-4.1445-23.23 1.9219l-13.227 13.266c-6.1719 6.1719-7.0273 15.855-1.9492 23.133l7.2031 10.137c-1.5195 3.1641-2.8516 6.4531-3.9922 9.8164l-11.613 1.9531c-8.8438 1.3398-15.262 8.8086-15.262 17.762v18.703c0 8.9531 6.418 16.426 14.953 17.711l12.215 2.082c1.1758 3.3594 2.5586 6.6523 4.1367 9.8398l-7 9.8281c-0.17969 0.25391-0.35156 0.50391-0.51563 0.76172-4.5547 7.1836-3.543 16.391 2.4414 22.379l13.238 13.238c5.75 5.75 15.133 6.9258 22.211 2.5469 0.3125-0.19141 0.61719-0.39062 0.91797-0.60547l10.148-7.2188c3.0234 1.4375 6.1211 2.7109 9.2734 3.8086l1.9648 11.777c1.3242 8.8516 8.7969 15.27 17.758 15.27h18.691c8.9609 0 16.43-6.418 17.719-14.98l2.0312-12.047c3.375-1.1719 6.6602-2.5312 9.8242-4.0781l9.8398 7.0039c6.9219 5 17.152 4.1836 23.223-1.8867l13.184-13.188c6.2383-6.1953 7.0938-15.91 1.9922-23.156l-7.0898-9.9844c1.5469-3.168 2.9062-6.4453 4.0703-9.8242l11.922-1.9805c7.2461-1.1719 13.699-6.4844 15.406-13.316 0.39062-1.4062 1.4453-2.8984 1.4453-4.4258v-18.699c0-8.9531-7.2617-16.426-15.82-17.719zm-43.406 40.875c-1.3086 5.0664-3.293 9.8555-5.9375 14.297-3.0977 5.2578-3.8906 11.453-2.4375 17.199-5.6602-1.4219-11.957-0.59375-17.258 2.5156-4.375 2.6055-9.1562 4.5938-14.055 5.8633-6.0039 1.4961-10.988 5.2852-14.004 10.305-3.0352-5.0234-7.9414-8.7812-13.777-10.266-4.8398-1.2539-9.5664-3.1914-14.113-5.8008-3.4453-1.9648-7.3633-2.9961-11.328-2.9961-1.9414 0-3.8711 0.25391-5.7188 0.72656 1.3828-5.6953 0.55859-11.855-2.5586-17.176-2.6875-4.4805-4.6914-9.2344-6.0195-14.375-1.6016-5.8203-5.4258-10.684-10.465-13.664 5.0625-3.0508 8.8477-8.0117 10.336-13.945 1.2812-5.0977 3.2266-9.8906 5.7852-14.246 3.1094-5.2969 3.8789-11.523 2.4062-17.23 5.6328 1.3672 11.828 0.53125 17.152-2.5938 4.4688-2.6836 9.2188-4.6875 14.363-6.0195 5.8086-1.6016 10.668-5.4219 13.648-10.449 3.0586 5.0664 8.0195 8.8477 13.926 10.32 5.1523 1.293 10.074 3.3164 14.656 6.0195 5.1133 2.9961 11.355 3.875 17.023 2.4805-1.4062 5.6914-0.58984 11.844 2.5273 17.152 2.6094 4.3867 4.5938 9.1797 5.8633 14.105 1.5 5.9883 5.2852 10.961 10.289 13.977-5.0391 3.0195-8.8086 7.9414-10.305 13.801z"/>
	<path d="m461.11 342.71c-27.59 0-50.035 22.457-50.035 50.055 0 27.598 22.445 50.055 50.035 50.055s50.035-22.457 50.035-50.055c0-27.598-22.445-50.055-50.035-50.055zm0 66.5c-9.0625 0-16.438-7.375-16.438-16.453s7.375-16.453 16.438-16.453 16.438 7.375 16.438 16.453-7.375 16.453-16.438 16.453z"/>
</svg>
